<svg width="41" height="41" viewBox="0 0 41 41" fill="none" xmlns="http://www.w3.org/2000/svg">
<path d="M8.77902 37.0032L5.12076 33.3449L10.3033 28.1624L8.16931 26.0284L10.3033 23.8944L12.4373 26.0284L22.1927 10.7856L35.3014 6.82251L30.7286 19.3216L16.0956 29.6867L18.2295 31.8206L16.0956 33.9546L13.9616 31.8206L8.77902 37.0032Z" fill="white"/>
<path d="M12.4373 26.0284L10.3033 23.8944L8.16931 26.0284L10.3033 28.1624L5.12076 33.3449C6.5494 34.7736 7.35038 35.5745 8.77902 37.0032L13.9616 31.8206L16.0956 33.9546L18.2295 31.8206L16.0956 29.6867M12.4373 26.0284L16.0956 29.6867M12.4373 26.0284L22.1927 10.7856L35.3014 6.82251M16.0956 29.6867L30.7286 19.3216L35.3014 6.82251M35.3014 6.82251L15.4858 26.6381" stroke="#F2994A" stroke-opacity="0.3" stroke-width="1.39197"/>
<path d="M32.8626 37.0032L36.5208 33.3449L31.3383 28.1624L33.4723 26.0284L31.3383 23.8944L29.2043 26.0284L19.4489 10.7856L6.34016 6.82251L10.913 19.3216L25.546 29.6867L23.4121 31.8206L25.5461 33.9546L27.68 31.8206L32.8626 37.0032Z" fill="white"/>
<path d="M29.2043 26.0284L31.3383 23.8944L33.4723 26.0284L31.3383 28.1624L36.5208 33.3449C35.0922 34.7736 34.2912 35.5745 32.8626 37.0032L27.68 31.8206L25.5461 33.9546L23.4121 31.8206L25.546 29.6867M29.2043 26.0284L25.546 29.6867M29.2043 26.0284L19.4489 10.7856L6.34016 6.82251M25.546 29.6867L10.913 19.3216L6.34016 6.82251M6.34016 6.82251L26.1558 26.6381" stroke="#F2994A" stroke-opacity="0.3" stroke-width="1.39197"/>
</svg>
